<svg width="26" height="26" viewBox="0 0 26 26" fill="none" xmlns="http://www.w3.org/2000/svg">
<path d="M13.1338 13.8532C13.6656 12.6205 14.6063 11.6089 15.7972 10.9892C16.9882 10.3695 18.3564 10.1795 19.6711 10.4513C20.9858 10.7232 22.1665 11.4401 23.014 12.4813C23.8615 13.5225 24.324 14.8242 24.3233 16.1667C24.3233 20.677 19.6567 24.3333 13.8233 24.3333C9.06682 24.3333 4.31149 23.3767 1.72382 21.461C1.22682 21.0923 0.987657 20.4903 1.00049 19.872C1.12766 13.5102 1.72149 1 10.3233 1C11.2516 1 12.1418 1.36875 12.7982 2.02513C13.4546 2.6815 13.8233 3.57174 13.8233 4.5C13.8233 5.11884 13.5775 5.71233 13.1399 6.14992C12.7023 6.5875 12.1088 6.83333 11.49 6.83333C10.2008 6.83333 9.57666 6.31533 9.15666 5.66667" stroke="#E3E3E3" stroke-width="2" stroke-linecap="round" stroke-linejoin="round"/>
</svg>
