<svg width="320" height="139" viewBox="0 0 320 139" fill="none" xmlns="http://www.w3.org/2000/svg">
<path d="M160 138.333C233.638 138.333 293.333 133.11 293.333 126.667C293.333 120.223 233.638 115 160 115C86.3619 115 26.6665 120.223 26.6665 126.667C26.6665 133.11 86.3619 138.333 160 138.333Z" fill="#B3B4B4" fill-opacity="0.04"/>
<path d="M306.667 25H13.3333C11.4924 25 10 26.4924 10 28.3333V40C10 41.8409 11.4924 43.3333 13.3333 43.3333H306.667C308.508 43.3333 310 41.8409 310 40V28.3333C310 26.4924 308.508 25 306.667 25Z" fill="#888888"/>
<path d="M77.5 18.3333H67.5C66.1193 18.3333 65 19.4525 65 20.8333V47.4999C65 48.8806 66.1193 49.9999 67.5 49.9999H77.5C78.8807 49.9999 80 48.8806 80 47.4999V20.8333C80 19.4525 78.8807 18.3333 77.5 18.3333Z" fill="#555555"/>
<path d="M252.5 18.3333H242.5C241.119 18.3333 240 19.4525 240 20.8333V47.4999C240 48.8806 241.119 49.9999 242.5 49.9999H252.5C253.881 49.9999 255 48.8806 255 47.4999V20.8333C255 19.4525 253.881 18.3333 252.5 18.3333Z" fill="#555555"/>
<path d="M14.1667 0H4.16667C1.86548 0 0 1.86548 0 4.16667V64.1667C0 66.4678 1.86548 68.3333 4.16667 68.3333H14.1667C16.4678 68.3333 18.3333 66.4678 18.3333 64.1667V4.16667C18.3333 1.86548 16.4678 0 14.1667 0Z" fill="#2563EB"/>
<path d="M30 6.66675H23.3333C21.4924 6.66675 20 8.15913 20 10.0001V58.3334C20 60.1744 21.4924 61.6667 23.3333 61.6667H30C31.8409 61.6667 33.3333 60.1744 33.3333 58.3334V10.0001C33.3333 8.15913 31.8409 6.66675 30 6.66675Z" fill="#1A63E5"/>
<path d="M42.5 12.5H37.5C36.1193 12.5 35 13.6193 35 15V53.3333C35 54.714 36.1193 55.8333 37.5 55.8333H42.5C43.8807 55.8333 45 54.714 45 53.3333V15C45 13.6193 43.8807 12.5 42.5 12.5Z" fill="#3B82F6"/>
<path d="M315.833 0H305.833C303.532 0 301.667 1.86548 301.667 4.16667V64.1667C301.667 66.4678 303.532 68.3333 305.833 68.3333H315.833C318.134 68.3333 320 66.4678 320 64.1667V4.16667C320 1.86548 318.134 0 315.833 0Z" fill="#2563EB"/>
<path d="M296.667 6.66675H290C288.159 6.66675 286.667 8.15913 286.667 10.0001V58.3334C286.667 60.1744 288.159 61.6667 290 61.6667H296.667C298.507 61.6667 300 60.1744 300 58.3334V10.0001C300 8.15913 298.507 6.66675 296.667 6.66675Z" fill="#1A63E5"/>
<path d="M282.5 12.5H277.5C276.119 12.5 275 13.6193 275 15V53.3333C275 54.714 276.119 55.8333 277.5 55.8333H282.5C283.881 55.8333 285 54.714 285 53.3333V15C285 13.6193 283.881 12.5 282.5 12.5Z" fill="#3B82F6"/>
<path opacity="0.6" d="M9.16699 39.1667C11.9284 39.1667 14.167 36.9282 14.167 34.1667C14.167 31.4053 11.9284 29.1667 9.16699 29.1667C6.40557 29.1667 4.16699 31.4053 4.16699 34.1667C4.16699 36.9282 6.40557 39.1667 9.16699 39.1667Z" fill="#555555"/>
<path opacity="0.6" d="M310.833 39.1667C313.594 39.1667 315.833 36.9282 315.833 34.1667C315.833 31.4053 313.594 29.1667 310.833 29.1667C308.072 29.1667 305.833 31.4053 305.833 34.1667C305.833 36.9282 308.072 39.1667 310.833 39.1667Z" fill="#555555"/>
</svg>
